<svg width="14" height="14" viewBox="0 0 14 14" fill="none" xmlns="http://www.w3.org/2000/svg">
<path d="M7 0.5C5.71442 0.5 4.45772 0.881218 3.3888 1.59545C2.31988 2.30968 1.48676 3.32484 0.994786 4.51256C0.502816 5.70028 0.374095 7.00721 0.624899 8.26809C0.875703 9.52896 1.49477 10.6872 2.40381 11.5962C3.31285 12.5052 4.47104 13.1243 5.73192 13.3751C6.99279 13.6259 8.29973 13.4972 9.48744 13.0052C10.6752 12.5132 11.6903 11.6801 12.4046 10.6112C13.1188 9.54229 13.5 8.28558 13.5 7C13.4982 5.27665 12.8128 3.62441 11.5942 2.40582C10.3756 1.18722 8.72335 0.50182 7 0.5ZM7 1.5C7.91538 1.50038 8.81618 1.72922 9.62075 2.16577C10.4253 2.60233 11.1082 3.23279 11.6075 4H7C6.36848 4.00071 5.75324 4.20036 5.24164 4.5706C4.73003 4.94084 4.34807 5.46285 4.15 6.0625L2.7075 3.5625C3.22237 2.91864 3.87555 2.39893 4.61862 2.04189C5.3617 1.68485 6.1756 1.49964 7 1.5ZM9 7C9 7.39556 8.8827 7.78224 8.66294 8.11114C8.44318 8.44004 8.13082 8.69638 7.76537 8.84776C7.39992 8.99913 6.99778 9.03874 6.60982 8.96157C6.22186 8.8844 5.86549 8.69392 5.58579 8.41421C5.30608 8.13451 5.1156 7.77814 5.03843 7.39018C4.96126 7.00222 5.00087 6.60009 5.15224 6.23463C5.30362 5.86918 5.55996 5.55682 5.88886 5.33706C6.21776 5.1173 6.60444 5 7 5C7.53044 5 8.03914 5.21071 8.41422 5.58579C8.78929 5.96086 9 6.46957 9 7ZM6.17 12.4375C5.30997 12.3061 4.49337 11.9726 3.78728 11.4643C3.0812 10.9559 2.50577 10.2874 2.10827 9.51349C1.71076 8.73959 1.50252 7.88243 1.50065 7.01241C1.49878 6.1424 1.70333 5.28435 2.0975 4.50875L4.40188 8.5C4.40563 8.50625 4.41 8.51188 4.41375 8.5175C4.73135 9.05939 5.21103 9.48792 5.78514 9.74268C6.35925 9.99745 6.99885 10.0656 7.61375 9.9375L6.17 12.4375ZM7.295 12.4919L9.59813 8.5C9.60313 8.49125 9.60688 8.4825 9.61188 8.47375C9.92111 7.92842 10.0513 7.29975 9.98398 6.67646C9.9167 6.05318 9.65537 5.46677 9.23688 5H12.125C12.4414 5.81057 12.5609 6.68464 12.4738 7.55039C12.3866 8.41613 12.0954 9.24886 11.6238 9.98014C11.1523 10.7114 10.514 11.3204 9.76139 11.757C9.00875 12.1937 8.16326 12.4455 7.29438 12.4919H7.295Z" fill="white"/>
</svg>
