<svg width="113" height="24" viewBox="0 0 113 24" fill="none" xmlns="http://www.w3.org/2000/svg">
<path fill-rule="evenodd" clip-rule="evenodd" d="M0 10.7163C0 6.96523 0 5.0897 0.730003 3.65699C1.37213 2.39675 2.39675 1.37213 3.65699 0.730003C5.0897 0 6.96523 0 10.7163 0H13.2837C17.0348 0 18.9103 0 20.343 0.730003C21.6033 1.37213 22.6279 2.39675 23.27 3.65699C24 5.0897 24 6.96523 24 10.7163V13.2837C24 17.0348 24 18.9103 23.27 20.343C22.6279 21.6033 21.6033 22.6279 20.343 23.27C18.9103 24 17.0348 24 13.2837 24H10.7163C6.96523 24 5.0897 24 3.65699 23.27C2.39675 22.6279 1.37213 21.6033 0.730003 20.343C0 18.9103 0 17.0348 0 13.2837V10.7163ZM11.0233 4.42465H13.1471H14.832C17.1211 4.42465 18.9767 6.29881 18.9767 8.6107C18.9767 10.2341 18.0618 11.6416 16.7242 12.336C16.4439 12.4815 16.1552 12.5842 15.8584 12.6583C15.3614 12.7824 14.8478 12.5974 14.471 12.2506C13.8954 11.7209 14.2754 10.8658 15.0495 10.7538C15.1244 10.7429 15.1987 10.7299 15.2721 10.7143C16.2364 10.5095 16.9604 9.64548 16.9604 8.6107C16.9604 7.42351 16.0075 6.46111 14.832 6.46111L11.0233 6.46111V6.45907H9.30431C8.11831 6.45907 7.15687 7.42051 7.15687 8.60651C7.15687 9.64026 7.88731 10.5034 8.86022 10.708C8.9346 10.7236 9.00981 10.7367 9.08571 10.7476C9.86297 10.8587 10.2422 11.72 9.66186 12.2489C9.2856 12.5917 8.77533 12.774 8.28084 12.6531C7.97705 12.5788 7.68174 12.4754 7.3951 12.3281C6.04561 11.6344 5.12245 10.2283 5.12245 8.60651C5.12245 6.29693 6.99473 4.42465 9.30431 4.42465H11.0233ZM10.6085 13.1586L10.6046 13.1548L11.4779 12.2861C11.8048 11.9609 12.3331 11.9613 12.6596 12.287L13.5047 13.13L13.503 13.1317L17.7106 17.3394C18.114 17.7427 18.114 18.3967 17.7106 18.8C17.3072 19.2034 16.6533 19.2034 16.2499 18.8L12.0423 14.5924L7.84595 18.7887C7.45002 19.1847 6.80808 19.1847 6.41214 18.7887C6.01621 18.3928 6.01621 17.7508 6.41214 17.3549L10.6085 13.1586ZM43.3315 16.9518C42.6413 17.7853 41.8273 18.4235 40.8896 18.8663C39.952 19.296 38.9036 19.5109 37.7445 19.5109C36.7026 19.5109 35.7324 19.3221 34.8338 18.9444C33.9482 18.5667 33.1799 18.0523 32.5287 17.4011C31.8775 16.75 31.3631 15.9816 30.9854 15.096C30.6078 14.1974 30.4189 13.2337 30.4189 12.2049C30.4189 11.176 30.6078 10.2188 30.9854 9.33324C31.3631 8.43464 31.8775 7.65975 32.5287 7.00859C33.1799 6.35743 33.9482 5.84301 34.8338 5.46534C35.7324 5.08766 36.7026 4.89882 37.7445 4.89882C38.8645 4.89882 39.8478 5.09417 40.6943 5.48487C41.5538 5.87557 42.3157 6.44208 42.9799 7.18441L41.124 8.98161C40.7073 8.49975 40.2254 8.11557 39.6785 7.82906C39.1445 7.54254 38.5064 7.39929 37.764 7.39929C37.1129 7.39929 36.5008 7.5165 35.9278 7.75092C35.3547 7.97231 34.8533 8.29138 34.4236 8.70813C34.0068 9.12487 33.6747 9.63278 33.4273 10.2318C33.1799 10.8179 33.0561 11.4756 33.0561 12.2049C33.0561 12.9342 33.1799 13.5984 33.4273 14.1974C33.6747 14.7835 34.0068 15.2849 34.4236 15.7016C34.8533 16.1184 35.3547 16.4439 35.9278 16.6784C36.5008 16.8998 37.1129 17.0105 37.764 17.0105C38.5454 17.0105 39.2357 16.8542 39.8347 16.5416C40.4468 16.216 40.9873 15.7602 41.4561 15.1742L43.3315 16.9518ZM106.276 13.5332C106.823 13.7677 107.409 13.8849 108.034 13.8849C108.646 13.8849 109.225 13.7677 109.772 13.5332C110.319 13.2988 110.795 12.9798 111.198 12.576C111.615 12.1593 111.941 11.6839 112.175 11.15C112.41 10.603 112.527 10.017 112.527 9.39185C112.527 8.77975 112.41 8.20022 112.175 7.65324C111.941 7.10627 111.615 6.63092 111.198 6.22719C110.795 5.81045 110.319 5.48487 109.772 5.25045C109.225 5.01603 108.646 4.89882 108.034 4.89882C107.409 4.89882 106.823 5.01603 106.276 5.25045C105.742 5.48487 105.266 5.81045 104.85 6.22719C104.446 6.63092 104.127 7.10627 103.892 7.65324C103.658 8.20022 103.541 8.77975 103.541 9.39185C103.541 10.017 103.658 10.603 103.892 11.15C104.127 11.6839 104.446 12.1593 104.85 12.576C105.266 12.9798 105.742 13.2988 106.276 13.5332ZM109.421 12.6737C108.991 12.856 108.529 12.9472 108.034 12.9472C107.552 12.9472 107.096 12.856 106.666 12.6737C106.237 12.4784 105.859 12.2179 105.533 11.8923C105.208 11.5667 104.947 11.1891 104.752 10.7593C104.57 10.3295 104.478 9.87371 104.478 9.39185C104.478 8.89696 104.57 8.43464 104.752 8.00487C104.947 7.5751 105.208 7.19743 105.533 6.87185C105.859 6.54627 106.237 6.29231 106.666 6.10999C107.096 5.92766 107.552 5.8365 108.034 5.8365C108.529 5.8365 108.991 5.92766 109.421 6.10999C109.851 6.29231 110.228 6.54627 110.554 6.87185C110.879 7.19743 111.133 7.5751 111.316 8.00487C111.498 8.43464 111.589 8.89696 111.589 9.39185C111.589 9.87371 111.498 10.3295 111.316 10.7593C111.133 11.1891 110.879 11.5667 110.554 11.8923C110.228 12.2179 109.851 12.4784 109.421 12.6737ZM106.53 7.18441V11.5993H107.428V9.95836H107.897L108.971 11.5993H109.987V11.5602L108.815 9.91929L108.854 9.88022C109.128 9.80208 109.356 9.6458 109.538 9.41138C109.733 9.16394 109.831 8.89045 109.831 8.59092C109.831 8.18719 109.688 7.8551 109.401 7.59464C109.115 7.32115 108.783 7.18441 108.405 7.18441H106.53ZM108.737 9.00115C108.62 9.09231 108.483 9.13789 108.327 9.13789H107.428V8.04394H108.346C108.529 8.04394 108.672 8.10254 108.776 8.21975C108.88 8.33696 108.932 8.46068 108.932 8.59092C108.932 8.76022 108.867 8.89696 108.737 9.00115ZM95.5876 10.9546V7.71185H101.819V5.21138H92.9504V19.1984H101.819V16.6979H95.5876V13.4551H101.194V10.9546H95.5876ZM84.5307 19.1984V7.71185H80.6237V5.21138H91.0749V7.71185H87.1679V19.1984H84.5307ZM75.9473 5.21138H72.9389L67.684 19.1984H70.5947L71.7473 15.8579H77.1389L78.2915 19.1984H81.2021L75.9473 5.21138ZM75.0291 9.93882L76.2794 13.4356H72.6068L73.857 9.93882L74.3649 8.23929H74.5212L75.0291 9.93882ZM60.1997 7.71185V10.9546H65.8062V13.4551H60.1997V16.6979H66.4313V19.1984H57.5625V5.21138H66.4313V7.71185H60.1997ZM50.5472 5.21138H45.4486V19.1984H48.0858V13.9435H49.3165L52.9304 19.1984H55.9583V19.0421L52.2076 13.67L52.2272 13.5332C52.6309 13.39 53.0151 13.1946 53.3797 12.9472C53.7444 12.6867 54.0635 12.3937 54.3369 12.0681C54.6104 11.7295 54.8253 11.3584 54.9816 10.9546C55.1379 10.5379 55.216 10.0951 55.216 9.62627C55.216 8.98812 55.1053 8.40208 54.8839 7.86812C54.6625 7.32115 54.3435 6.85231 53.9267 6.46161C53.523 6.07092 53.0346 5.76487 52.4616 5.54347C51.8886 5.32208 51.2504 5.21138 50.5472 5.21138ZM51.9928 10.9742C51.6151 11.3388 51.1267 11.5211 50.5276 11.5211H48.0858V7.63371H50.5667C50.8923 7.63371 51.1788 7.69231 51.4262 7.80952C51.6867 7.91371 51.9016 8.05696 52.0709 8.23929C52.2402 8.42161 52.3639 8.62999 52.4421 8.8644C52.5332 9.09882 52.5788 9.33975 52.5788 9.5872C52.5788 10.1472 52.3834 10.6095 51.9928 10.9742Z" fill="#212226"/>
</svg>
